<svg width="11" height="13" viewBox="0 0 11 13" fill="none" xmlns="http://www.w3.org/2000/svg">
<path d="M5.5002 7.3002C6.49431 7.3002 7.3002 6.49431 7.3002 5.5002C7.3002 4.50608 6.49431 3.7002 5.5002 3.7002C4.50608 3.7002 3.7002 4.50608 3.7002 5.5002C3.7002 6.49431 4.50608 7.3002 5.5002 7.3002Z" stroke="white" stroke-width="0.9" stroke-linecap="round" stroke-linejoin="round"/>
<path d="M10 5.23077C10 9.03846 5.5 12 5.5 12C5.5 12 1 9.03846 1 5.23077C1 4.1087 1.47411 3.03259 2.31802 2.23916C3.16193 1.44574 4.30653 1 5.5 1C6.69347 1 7.83807 1.44574 8.68198 2.23916C9.52589 3.03259 10 4.1087 10 5.23077V5.23077Z" stroke="white" stroke-width="0.9" stroke-linecap="round" stroke-linejoin="round"/>
</svg>
