<svg width="30" height="30" viewBox="0 0 30 30" fill="none" xmlns="http://www.w3.org/2000/svg">
<path d="M23.1475 7.5H6.10203C5.63133 7.5 5.24976 7.85105 5.24976 8.28409V23.9659C5.24976 24.399 5.63133 24.75 6.10203 24.75H23.1475C23.6182 24.75 23.9998 24.399 23.9998 23.9659V8.28409C23.9998 7.85105 23.6182 7.5 23.1475 7.5Z" stroke="#D00338" stroke-opacity="0.9" stroke-linecap="round" stroke-linejoin="round"/>
<path d="M19.4998 6V9" stroke="#D00338" stroke-opacity="0.9" stroke-linecap="round" stroke-linejoin="round"/>
<path d="M8.99976 6V9" stroke="#D00338" stroke-opacity="0.9" stroke-linecap="round" stroke-linejoin="round"/>
<path d="M5.24976 12H23.9998" stroke="#D00338" stroke-opacity="0.9" stroke-linecap="round" stroke-linejoin="round"/>
<path d="M10.4998 16.5H13.4968L11.7842 18.2308C12.0661 18.2304 12.3437 18.2862 12.5924 18.3934C12.8412 18.5005 13.0534 18.6557 13.2102 18.845C13.367 19.0343 13.4636 19.2521 13.4914 19.4788C13.5192 19.7056 13.4774 19.9344 13.3696 20.1449C13.2618 20.3555 13.0914 20.5413 12.8735 20.6858C12.6556 20.8303 12.3969 20.9292 12.1205 20.9735C11.844 21.0179 11.5583 21.0064 11.2886 20.94C11.019 20.8737 10.7737 20.7546 10.5747 20.5933" stroke="#D00338" stroke-opacity="0.9" stroke-linecap="round" stroke-linejoin="round"/>
<path d="M15.7498 17.5385L17.9998 16.5V21" stroke="#D00338" stroke-opacity="0.9" stroke-linecap="round" stroke-linejoin="round"/>
</svg>
