<svg width="20" height="20" viewBox="0 0 20 20" fill="none" xmlns="http://www.w3.org/2000/svg">
<path d="M15.4998 7.88462C15.4998 12.7308 9.99976 16.5 9.99976 16.5C9.99976 16.5 4.49976 12.7308 4.49976 7.88462C4.49976 6.45653 5.07922 5.08693 6.11067 4.07712C7.14212 3.06731 8.54107 2.5 9.99976 2.5C11.4584 2.5 12.8574 3.06731 13.8888 4.07712C14.9203 5.08693 15.4998 6.45653 15.4998 7.88462Z" fill="#D00338" fillOpacity="0.9"/>
<path d="M9.99976 10.5C11.3805 10.5 12.4998 9.38071 12.4998 8C12.4998 6.61929 11.3805 5.5 9.99976 5.5C8.61904 5.5 7.49976 6.61929 7.49976 8C7.49976 9.38071 8.61904 10.5 9.99976 10.5Z" fill="white"/>
</svg>
