<svg width="130" height="146" viewBox="0 0 130 146" fill="none" xmlns="http://www.w3.org/2000/svg">
<path d="M129.583 99.3687L116.97 76.3717H118.851C119.771 76.3717 120.622 75.8724 121.087 75.0596C121.553 74.2469 121.562 73.2425 121.111 72.4214L108.498 49.4244H110.379C111.299 49.4244 112.151 48.925 112.616 48.1123C113.081 47.2996 113.09 46.2952 112.639 45.474L98.7667 20.1803C98.3077 19.3439 97.4434 18.8262 96.5061 18.8262C95.5688 18.8262 94.7044 19.3439 94.2454 20.1803L89.5078 28.8181C88.8073 30.0955 89.2514 31.7124 90.4997 32.4293C91.7484 33.1462 93.3282 32.6921 94.0287 31.4143L96.5057 26.8977L105.951 44.1195H104.07C103.149 44.1195 102.298 44.6188 101.833 45.4316C101.368 46.2443 101.359 47.2486 101.809 48.0698L114.423 71.0668H112.542C111.621 71.0668 110.77 71.5662 110.305 72.3789C109.84 73.1916 109.831 74.196 110.281 75.0172L122.895 98.0142H114.9C113.469 98.0142 112.308 99.2018 112.308 100.667C112.308 102.132 113.469 103.319 114.9 103.319H127.322C128.242 103.319 129.093 102.82 129.558 102.007C130.024 101.194 130.033 100.19 129.583 99.3687Z" fill="#D00338" fillOpacity="0.9"/>
<path d="M17.6917 100.667C17.6917 99.2021 16.5311 98.0146 15.0996 98.0146H7.10571L19.719 75.0176C20.1694 74.196 20.1604 73.192 19.6955 72.3793C19.2307 71.5666 18.3791 71.0672 17.4588 71.0672H15.5773L28.1906 48.0702C28.6409 47.2486 28.6319 46.2446 28.1671 45.4319C27.7023 44.6192 26.8507 44.1198 25.9303 44.1198H24.0492L33.4947 26.8981L35.9716 31.4146C36.6722 32.6921 38.252 33.1462 39.5006 32.4296C40.749 31.7128 41.1931 30.0959 40.4925 28.8184L35.7549 20.1807C35.296 19.3443 34.432 18.8262 33.4943 18.8262C32.557 18.8262 31.6927 19.3439 31.2337 20.1803L17.361 45.474C16.9106 46.2955 16.9196 47.2996 17.3845 48.1123C17.8493 48.925 18.7009 49.4244 19.6212 49.4244H21.5024L8.88905 72.4214C8.43872 73.2429 8.4477 74.2469 8.91255 75.0596C9.37739 75.8724 10.229 76.3717 11.1493 76.3717H13.0308L0.417484 99.3687C-0.0328439 100.19 -0.0238578 101.194 0.440986 102.007C0.90583 102.82 1.75741 103.319 2.67777 103.319H15.0989C16.5311 103.319 17.6917 102.132 17.6917 100.667Z" fill="#D00338" fillOpacity="0.9"/>
<path d="M61.1721 52.4507C59.7406 52.4507 58.5801 53.6383 58.5801 55.1031V58.6397C58.5801 60.1046 59.7406 61.2921 61.1721 61.2921C62.6037 61.2921 63.7642 60.1046 63.7642 58.6397V55.1031C63.7642 53.6383 62.6037 52.4507 61.1721 52.4507Z" fill="#D00338" fillOpacity="0.9"/>
<path d="M71.4905 76.3798C70.059 76.3798 68.8984 77.5674 68.8984 79.0323V82.5688C68.8984 84.0337 70.059 85.2213 71.4905 85.2213C72.922 85.2213 74.0826 84.0337 74.0826 82.5688V79.0323C74.0826 77.5674 72.922 76.3798 71.4905 76.3798Z" fill="#D00338" fillOpacity="0.9"/>
<path d="M117.193 115.147H99.1V111.277C99.1 109.812 97.9395 108.625 96.508 108.625C95.0765 108.625 93.9159 109.812 93.9159 111.277V115.147H67.5936V103.32H103.013C103.933 103.32 104.784 102.82 105.249 102.008C105.715 101.195 105.724 100.191 105.273 99.3695L89.2087 70.0802H92.5701C94.0016 70.0802 95.1622 68.8926 95.1622 67.4277C95.1622 66.8898 95.0056 66.389 94.7367 65.9714L78.7592 36.8398H82.1137C83.5521 36.8398 84.7127 35.6522 84.7127 34.1874C84.7127 33.6495 84.5561 33.1487 84.2872 32.7307L67.2619 1.68863C66.8029 0.852228 65.9385 0.334473 65.0016 0.334473C64.0646 0.334473 63.1999 0.852228 62.741 1.68863L45.6288 32.8884C45.1785 33.7099 45.1875 34.714 45.6523 35.5267C46.1172 36.3394 46.9688 36.8387 47.8891 36.8387H51.2436L35.1793 66.1284C34.729 66.9499 34.738 67.954 35.2029 68.7667C35.6677 69.5794 36.5193 70.0788 37.4396 70.0788H40.7941L24.7299 99.3681C24.2795 100.19 24.2885 101.194 24.7534 102.006C25.2182 102.819 26.0698 103.318 26.9901 103.318H62.4095V115.145H36.0869V111.276C36.0869 109.811 34.9264 108.623 33.4949 108.623C32.0633 108.623 30.9028 109.811 30.9028 111.276V115.145H12.8088C11.8003 115.145 10.8834 115.744 10.4583 116.68C10.0332 117.616 10.1773 118.719 10.8274 119.508C24.3521 135.921 44.0978 145.334 65.0016 145.334C72.8974 145.334 80.6604 144.005 88.0751 141.384C89.4282 140.906 90.1464 139.396 89.6787 138.011C89.2115 136.626 87.7347 135.892 86.3823 136.37C79.5134 138.799 72.3198 140.03 65.0016 140.03C47.5635 140.03 30.9947 132.96 18.7149 120.452H111.288C106.647 125.182 101.366 129.157 95.5306 132.307C94.2643 132.991 93.7794 134.595 94.4475 135.891C95.1155 137.187 96.6839 137.683 97.9495 136.999C106.092 132.604 113.233 126.719 119.174 119.509C119.824 118.72 119.969 117.617 119.543 116.681C119.118 115.745 118.201 115.147 117.193 115.147ZM31.4174 98.0146L47.4816 68.7253C47.932 67.9038 47.923 66.8997 47.4581 66.087C46.9933 65.2743 46.1417 64.7749 45.2214 64.7749H41.8669L57.9311 35.4853C58.3815 34.6638 58.3725 33.6597 57.9076 32.847C57.4428 32.0343 56.5912 31.5349 55.6708 31.5349H52.3164L65.0016 8.40637L77.6865 31.5342H74.332C73.4116 31.5342 72.5604 32.0336 72.0952 32.8463C71.63 33.659 71.621 34.6634 72.0717 35.4846L88.1359 64.7742H84.7815C83.8611 64.7742 83.0099 65.2736 82.5447 66.0863C82.0795 66.899 82.0705 67.9034 82.5212 68.7246L98.5854 98.0139H31.4174V98.0146Z" fill="#D00338" fillOpacity="0.9"/>
</svg>
