<svg width="122" height="146" viewBox="0 0 122 146" fill="none" xmlns="http://www.w3.org/2000/svg">
<path d="M119.155 77.7717H116.887V68.9332C117.86 67.1114 118.375 65.075 118.375 62.9957C118.375 58.2646 115.763 53.9718 111.56 51.7934C110.034 51.0018 108.76 49.8472 107.842 48.4407V41.8266C107.842 40.6788 106.911 39.7483 105.763 39.7483C104.615 39.7483 103.685 40.6788 103.685 41.8266V48.4397C102.769 49.8398 101.482 51.0011 99.9307 51.8123C95.7332 54.0041 93.1356 58.3068 93.1516 63.0411C93.159 65.0935 93.6728 67.1078 94.639 68.914V77.7723H88.3377V68.7327C91.0583 63.9827 92.4942 58.5955 92.4942 53.0912C92.4942 41.276 85.9719 30.5559 75.4728 25.1143C70.2991 22.4308 66.0271 18.4306 63.0788 13.5293V2.41276C63.0788 1.2649 62.1484 0.334473 61.0005 0.334473C59.8527 0.334473 58.9223 1.2649 58.9223 2.41276V13.5284C55.9893 18.4015 51.685 22.4183 46.4369 25.1613C35.954 30.6355 29.4666 41.3806 29.5065 53.2035C29.5251 58.6342 30.96 63.9604 33.6628 68.6726V77.7717H27.3608V68.9338C28.3337 67.112 28.8485 65.0753 28.8485 62.9957C28.8485 58.2646 26.2369 53.9718 22.0337 51.7931C20.5076 51.0018 19.2337 49.8469 18.3154 48.4404V41.8266C18.3154 40.6788 17.385 39.7483 16.2372 39.7483C15.0893 39.7483 14.1589 40.6788 14.1589 41.8266V48.44C13.2425 49.8402 11.9562 51.0011 10.4045 51.8123C6.20703 54.0041 3.6095 58.3068 3.62548 63.0411C3.63252 65.0938 4.14665 67.1078 5.1129 68.9137V77.772H2.84501C1.69716 77.772 0.766724 78.7024 0.766724 79.8503V143.257C0.766724 144.404 1.69716 145.335 2.84501 145.335H119.155C120.303 145.335 121.234 144.404 121.234 143.257V79.85C121.234 78.7021 120.303 77.7717 119.155 77.7717ZM101.855 55.496C103.34 54.7197 104.659 53.7115 105.761 52.5189C106.861 53.7147 108.173 54.7187 109.646 55.4832C112.466 56.9447 114.218 59.8233 114.218 62.9957C114.218 64.1797 113.971 65.3426 113.497 66.4137H98.0378C97.5627 65.3496 97.3117 64.197 97.3079 63.0264C97.2973 59.8517 99.0392 56.9664 101.855 55.496ZM98.7956 70.5699H112.731V77.7713H98.7956V70.5699ZM60.9986 17.9398C62.2753 19.7303 63.7205 21.3923 65.3096 22.9117H56.6697C58.2703 21.3875 59.7213 19.7255 60.9986 17.9398ZM48.3614 28.8453C49.4085 28.2979 50.4205 27.7032 51.3992 27.0682H70.5763C71.5384 27.6901 72.5325 28.2711 73.5595 28.8038C82.6751 33.5282 88.338 42.8344 88.338 53.0906C88.338 57.7511 87.1521 62.3134 84.9037 66.3596H37.131C34.8762 62.3329 33.6788 57.8045 33.6628 53.1891C33.6282 42.9259 39.2601 33.5979 48.3614 28.8453ZM37.819 70.5162H84.1808V77.7717H37.819V70.5162ZM12.329 55.496C13.8142 54.7197 15.1325 53.7115 16.2343 52.5189C17.3348 53.715 18.6467 54.7187 20.12 55.4832C22.9401 56.9447 24.6919 59.8233 24.6919 62.9957C24.6919 64.1797 24.4441 65.3426 23.9709 66.4137H8.51169C8.03656 65.3499 7.78557 64.1973 7.78173 63.0264C7.77118 59.8517 9.51311 56.9664 12.329 55.496ZM9.26947 70.5699H23.2045V77.7713H9.26947V70.5699ZM4.92329 81.9282H33.6628V141.178H4.92329V81.9282ZM75.0974 141.178H46.903V109.998C46.903 105.51 49.5431 101.409 53.629 99.5518L61.0002 96.2006L68.3711 99.5518C72.457 101.409 75.0971 105.51 75.0971 109.998V141.178H75.0974ZM79.254 141.178V109.998C79.254 103.884 75.6576 98.2984 70.0919 95.768L61.8606 92.0258C61.3139 91.7771 60.6869 91.7774 60.1404 92.0258L51.9088 95.768C46.3429 98.2984 42.7465 103.884 42.7465 109.998V141.178H37.819V81.9282H84.1808V141.178H79.254ZM117.077 141.178H88.3377V81.9282H117.077V141.178Z" fill="#D00338" fillOpacity="0.9"/>
<path d="M22.9689 89.7797L20.153 88.4994C19.6062 88.251 18.9792 88.251 18.4325 88.4994L15.6169 89.7793C13.2259 90.8661 11.6809 93.2657 11.6809 95.8921V106.413C11.6809 107.561 12.6113 108.491 13.7592 108.491H24.8259C25.9738 108.491 26.9042 107.561 26.9042 106.413V95.8921C26.9045 93.2657 25.3595 90.8664 22.9689 89.7797ZM22.7479 104.335H15.8378V95.8921C15.8378 94.8916 16.4264 93.9775 17.3374 93.5631L19.2929 92.6739L21.2487 93.5631C22.1596 93.9771 22.7479 94.8913 22.7479 95.8917V104.335Z" fill="#D00338" fillOpacity="0.9"/>
<path d="M22.9689 114.719L20.153 113.439C19.6062 113.19 18.9792 113.19 18.4325 113.439L15.6169 114.719C13.2259 115.806 11.6809 118.205 11.6809 120.832V131.352C11.6809 132.5 12.6113 133.431 13.7592 133.431H24.8259C25.9738 133.431 26.9042 132.5 26.9042 131.352V120.832C26.9045 118.205 25.3595 115.806 22.9689 114.719ZM22.7479 129.274H15.8378V120.832C15.8378 119.831 16.4264 118.917 17.3374 118.503L19.2929 117.613L21.2487 118.503C22.1596 118.917 22.7479 119.831 22.7479 120.831V129.274Z" fill="#D00338" fillOpacity="0.9"/>
<path d="M97.1735 108.491H108.24C109.388 108.491 110.319 107.561 110.319 106.413V95.8921C110.319 93.2658 108.774 90.8661 106.383 89.7794L103.567 88.4991C103.021 88.2507 102.393 88.2507 101.846 88.4991L99.0309 89.779C96.6396 90.8658 95.0946 93.2651 95.0946 95.8918V106.413C95.0952 107.561 96.026 108.491 97.1735 108.491ZM99.2518 95.8921C99.2518 94.8916 99.8405 93.9775 100.751 93.5631L102.707 92.6739L104.662 93.5631C105.573 93.9772 106.162 94.8913 106.162 95.8921V104.335H99.2515V95.8921H99.2518Z" fill="#D00338" fillOpacity="0.9"/>
<path d="M97.1735 133.431H108.24C109.388 133.431 110.319 132.5 110.319 131.352V120.831C110.319 118.205 108.774 115.806 106.383 114.719L103.567 113.439C103.021 113.19 102.393 113.19 101.846 113.439L99.0309 114.718C96.6396 115.805 95.0946 118.205 95.0946 120.831V131.352C95.0952 132.5 96.026 133.431 97.1735 133.431ZM99.2518 120.831C99.2518 119.831 99.8405 118.917 100.751 118.502L102.707 117.613L104.662 118.502C105.573 118.917 106.162 119.831 106.162 120.831V129.274H99.2515V120.831H99.2518Z" fill="#D00338" fillOpacity="0.9"/>
</svg>
