<svg width="66" height="146" viewBox="0 0 66 146" fill="none" xmlns="http://www.w3.org/2000/svg">
<path d="M64.3148 145.334H51.6019C50.6708 145.334 49.9164 144.595 49.9164 143.681C49.9164 134.534 42.3281 127.091 33.0004 127.091C23.6727 127.091 16.0838 134.534 16.0838 143.681C16.0838 144.595 15.3293 145.334 14.3983 145.334H1.68534C1.08664 145.334 0.533108 145.023 0.230388 144.516C-0.071659 144.009 -0.0770527 143.383 0.216229 142.871L13.5272 119.663V113.094C13.5272 112.18 14.2816 111.44 15.2127 111.44H16.7176L23.1131 90.7217L20.661 87.7152C20.2558 87.2193 20.1776 86.5396 20.4581 85.9663C20.7392 85.3937 21.3292 85.0294 21.9771 85.0294H23.6006C24.3119 81.324 26.2812 69.7219 27.1827 50.8577C28.2958 27.5609 28.5567 16.973 28.5587 16.8692C28.5587 16.8566 28.5594 16.8447 28.5601 16.8328C27.9034 16.206 27.4948 15.3306 27.4948 14.3626V10.3656C27.4948 8.46463 29.0718 6.91808 31.0095 6.91808H31.3142V1.98748C31.3142 1.07436 32.0687 0.334473 32.9998 0.334473C33.9308 0.334473 34.6853 1.07436 34.6853 1.98748V6.91874H34.9893C36.9277 6.91874 38.5047 8.46529 38.5047 10.3663V14.3632C38.5047 15.3306 38.0961 16.2067 37.4394 16.8335C37.4394 16.8454 37.4401 16.858 37.4408 16.8699C37.4428 16.9743 37.7044 27.5701 38.8168 50.859C39.7189 69.7232 41.6883 81.3253 42.3989 85.0307H44.0224C44.6703 85.0307 45.261 85.395 45.5414 85.9676C45.8219 86.5402 45.743 87.2206 45.3385 87.7165L42.8864 90.723L49.282 111.442H50.7861C51.7172 111.442 52.4716 112.182 52.4716 113.095V119.664L65.7833 142.872C66.0772 143.384 66.0718 144.01 65.7691 144.517C65.4671 145.023 64.9135 145.334 64.3148 145.334ZM53.218 142.028H61.4333L49.8018 121.749H16.1991L4.56759 142.028H12.7822C13.6411 131.828 22.3809 123.785 33.0004 123.785C43.6199 123.785 52.3584 131.828 53.218 142.028ZM16.8989 118.443H49.1013V114.747H16.8989V118.443ZM41.567 111.44H45.7599L39.4034 90.8466C39.2423 90.3256 39.3535 89.7603 39.7001 89.3351L40.5152 88.3354H25.4843L26.2994 89.3351C26.646 89.7603 26.7572 90.3256 26.5961 90.8466L20.2396 111.44H24.4325L27.3687 96.0821C27.5184 95.3005 28.2142 94.7339 29.0253 94.7339H36.9742C37.7853 94.7339 38.4811 95.3005 38.6308 96.0821L41.567 111.44ZM27.8623 111.44H38.1372L35.5752 98.0399H30.4236L27.8623 111.44ZM27.0337 85.0294H38.9658C38.1501 80.6734 36.3243 69.3066 35.4498 51.0131C34.5794 32.8022 34.2288 22.3314 34.1156 18.5612H31.8833C31.77 22.3314 31.4194 32.8029 30.549 51.0131C29.6759 69.3066 27.8495 80.6734 27.0337 85.0294ZM31.0102 10.2248C30.9306 10.2248 30.8665 10.2882 30.8665 10.3663V14.3632C30.8665 14.4413 30.9313 14.5047 31.0102 14.5047H34.99C35.0696 14.5047 35.1343 14.4413 35.1343 14.3632V10.3663C35.1343 10.2882 35.0696 10.2248 34.99 10.2248H31.0102Z" fill="#D00338" fill-opacity="0.9"/>
</svg>
