<svg width="56" height="146" viewBox="0 0 56 146" fill="none" xmlns="http://www.w3.org/2000/svg">
<path d="M6.32028 16.0773C6.68813 16.0773 7.05711 15.9589 7.34874 15.7194C7.51597 15.5817 11.4242 12.3035 9.2111 8.08502C7.81214 5.41834 9.75605 2.39846 9.77273 2.37248C10.2005 1.73187 9.9631 0.90404 9.24296 0.523182C8.52281 0.14401 7.59182 0.353836 7.16405 0.994784C7.04915 1.16683 4.37714 5.25203 6.46173 9.2259C7.72492 11.6338 5.40218 13.6417 5.285 13.7405C4.67483 14.2465 4.63805 15.097 5.20498 15.6428C5.50419 15.9312 5.91148 16.0773 6.32028 16.0773Z" fill="#D00338" fillOpacity="0.9"/>
<path d="M20.196 45.2264C19.6954 45.702 19.2692 46.2414 18.9328 46.8315H13.2733C12.7113 46.8315 12.2262 47.1064 11.9642 47.5105C10.6528 39.0676 12.8357 29.51 12.8626 29.3957C12.9252 29.1261 12.8941 28.8458 12.7731 28.5928L10.2448 23.308C9.91677 22.6222 9.02636 22.3024 8.25502 22.5949C7.48405 22.8867 7.1253 23.6791 7.45333 24.3649L9.79883 29.2675C9.26754 31.7489 6.87995 44.1995 10.321 53.1708C10.536 53.7314 11.1254 54.0846 11.7564 54.0846C11.9187 54.0846 12.084 54.0613 12.2463 54.0121C13.0393 53.7712 13.4625 53.0045 13.1921 52.2991C12.8125 51.3093 12.5114 50.2652 12.2759 49.1901C12.5429 49.399 12.8895 49.5302 13.2733 49.5302H18.1046C18.0925 49.6887 18.078 49.8469 18.078 50.0082C18.078 50.7534 18.7572 51.3576 19.5949 51.3576C20.4326 51.3576 21.1118 50.7534 21.1118 50.0082C21.1118 47.6853 23.1494 45.7955 25.6553 45.7918C25.658 45.7918 25.6602 45.7924 25.6625 45.7924C25.6652 45.7924 25.6674 45.7918 25.6697 45.7918C28.1756 45.7955 30.2132 47.6853 30.2132 50.0082C30.2132 50.0207 30.2136 50.0369 30.214 50.0493C30.2401 50.8849 30.0073 53.3286 28.6334 54.5856C28.0095 55.156 27.2029 55.4336 26.1669 55.4336C25.3292 55.4336 24.65 56.0378 24.65 56.783C24.65 57.5282 25.3292 58.1324 26.1669 58.1324C27.2841 58.1324 28.2879 57.9283 29.1749 57.5322L32.2079 62.3188C25.0595 71.1318 20.6143 74.2188 19.4831 74.6661L19.1581 74.7943C15.5077 76.2341 9.39723 78.6434 8.14428 82.6685C7.5872 84.4581 8.04454 86.3007 9.50417 88.1453C9.79959 88.519 10.2691 88.7181 10.7458 88.7181C11.0472 88.7181 11.3521 88.6385 11.6172 88.4721C12.3025 88.0434 12.4671 87.2014 11.9851 86.5921C11.0605 85.4236 10.7605 84.3758 11.0681 83.3884C11.938 80.5932 17.4349 78.4258 20.3875 77.2613L20.7148 77.1321C25.5063 75.2379 34.2572 64.4157 35.2394 63.1878C35.5803 62.7614 35.6137 62.1983 35.3247 61.7429L31.5033 55.7116C33.2834 53.4356 33.2553 50.3334 33.2462 49.9893C33.2458 49.8341 33.2311 49.6827 33.2193 49.5302H38.0472C38.8849 49.5302 39.5641 48.926 39.5641 48.1808C39.5641 47.4356 38.8849 46.8315 38.0472 46.8315H32.3907C32.0543 46.2414 31.6281 45.702 31.1275 45.2267L35.4943 41.3422C36.0866 40.8157 36.0866 39.9608 35.4943 39.4342C34.9019 38.9073 33.9417 38.9073 33.349 39.4342L28.6197 43.6412C28.1605 43.4631 27.6785 43.3251 27.1783 43.232V37.1599C27.1783 36.4147 26.4991 35.8105 25.6614 35.8105C24.8237 35.8105 24.1445 36.4147 24.1445 37.1599V43.232C23.6447 43.3248 23.1623 43.4631 22.7031 43.6409L17.9741 39.4342C17.3814 38.907 16.4212 38.907 15.8289 39.4342C15.2365 39.9612 15.2365 40.8157 15.8289 41.3422L20.196 45.2264Z" fill="#D00338" fillOpacity="0.9"/>
<path d="M5.9431 30.6955C6.21424 30.6955 6.4888 30.6307 6.73643 30.4948C7.45013 30.1045 7.67236 29.2733 7.2336 28.6384L5.21119 25.7147C4.77243 25.0801 3.83803 24.8821 3.12433 25.2728C2.41063 25.6631 2.1884 26.4943 2.62717 27.1291L4.64995 30.0529C4.93626 30.4671 5.4338 30.6955 5.9431 30.6955Z" fill="#D00338" fillOpacity="0.9"/>
<path d="M13.9045 19.5469C13.8946 18.802 13.1984 18.1931 12.3701 18.2134L1.49893 18.3257C0.66123 18.3345 -0.0099967 18.9457 -0.000136892 19.6909C0.0093437 20.4304 0.686637 21.0244 1.516 21.0244C1.52207 21.0244 1.52814 21.0244 1.53383 21.0244L12.405 20.9121C13.2427 20.903 13.9143 20.2921 13.9045 19.5469Z" fill="#D00338" fillOpacity="0.9"/>
<path d="M7.32882 64.7305C7.62879 65.0507 8.06034 65.216 8.49493 65.216C8.84078 65.216 9.18891 65.1114 9.47409 64.8968C10.1195 64.4111 10.1533 63.5299 9.61212 62.9521L8.5302 61.797C12.1685 60.9564 16.3782 58.1139 17.9896 56.9531C18.5546 56.5463 18.7537 55.8359 18.4139 55.2641C17.9505 54.4838 16.839 54.3091 16.1094 54.8353C12.47 57.4595 8.35234 59.3989 6.672 59.3732C6.40275 59.3692 6.15133 59.2575 5.97879 59.0737C5.74215 58.6442 5.42132 57.2918 6.8472 53.4586C7.10432 52.7677 6.75809 51.9743 5.99812 51.7061C5.18203 51.418 4.27038 51.8006 3.9962 52.5326C2.91276 55.4246 1.77812 59.4002 4.04133 61.2205L7.32882 64.7305Z" fill="#D00338" fillOpacity="0.9"/>
<path d="M15.9956 61.9668C12.8902 66.8542 8.78394 70.1206 8.72743 70.1652C8.09982 70.6584 8.0399 71.5105 8.59394 72.0695C8.89391 72.3717 9.31182 72.5262 9.732 72.5262C10.0888 72.5262 10.4468 72.4149 10.735 72.1885C10.9182 72.0448 15.263 68.6039 18.6365 63.2949C19.0488 62.6462 18.7916 61.8231 18.0624 61.4564C17.3328 61.0887 16.4082 61.3177 15.9956 61.9668Z" fill="#D00338" fillOpacity="0.9"/>
<path d="M11.2509 101.537C11.8486 101.537 12.4151 101.221 12.6555 100.698L19.4816 85.8555C19.799 85.1656 19.4273 84.3776 18.6518 84.0955C17.8759 83.8132 16.9908 84.1441 16.6734 84.8336L9.84739 99.6766C9.53036 100.366 9.90162 101.155 10.6771 101.437C10.8652 101.505 11.0594 101.537 11.2509 101.537Z" fill="#D00338" fillOpacity="0.9"/>
<path d="M34.7835 78.0074C33.9985 77.7494 33.1252 78.1036 32.8335 78.8025C32.7679 78.9597 26.1888 94.7088 19.695 109.594C17.8121 113.911 16.6433 114.924 16.2766 115.151C15.5948 114.522 14.787 111.747 14.5307 109.069C14.4598 108.327 13.7283 107.778 12.8909 107.839C12.0563 107.903 11.4374 108.555 11.5075 109.297C11.6899 111.217 12.1374 113.984 13.2292 115.858L10.2709 128.359C10.0983 129.088 10.6228 129.803 11.4427 129.957C11.5481 129.977 11.6531 129.986 11.7567 129.986C12.459 129.986 13.0893 129.55 13.2394 128.915L15.8512 117.879C15.8519 117.879 15.8527 117.879 15.8538 117.879C15.9903 117.897 16.1257 117.906 16.2603 117.906C18.4018 117.906 20.2994 115.669 22.5236 110.571C29.0258 95.6662 35.6121 79.8996 35.6777 79.742C35.9693 79.0437 35.5689 78.2668 34.7835 78.0074Z" fill="#D00338" fillOpacity="0.9"/>
<path d="M55.9458 73.2904C55.8294 72.9159 55.5374 72.6042 55.1441 72.4349L47.3067 69.0614C46.6074 68.7602 45.7659 68.9778 45.3567 69.5651L43.0757 72.8376C41.9631 71.7146 40.1124 68.7835 38.7973 66.2285C38.4484 65.5511 37.5478 65.2532 36.7866 65.5632C36.0248 65.8732 35.6899 66.6741 36.0384 67.3515C36.8064 68.8449 39.2926 73.4678 41.445 75.1771L39.0866 78.5606C38.9247 78.7927 38.8458 79.0633 38.8606 79.3365L40.5357 110.239L25.5779 118.201C24.8589 118.584 24.625 119.412 25.055 120.052C25.339 120.474 25.8423 120.708 26.358 120.708C26.6231 120.708 26.8916 120.646 27.1354 120.517L42.8732 112.14C43.3537 111.884 43.6366 111.414 43.6093 110.917L42.5516 91.4035C42.9707 91.3526 43.3639 91.1468 43.6146 90.8075L46.0215 87.5511C46.0458 87.9495 46.2604 88.3344 46.6548 88.5824C46.9206 88.7493 47.2259 88.8293 47.5282 88.8293C48.0045 88.8293 48.4732 88.6303 48.7686 88.2582L53.3193 82.5234C53.8024 81.9145 53.639 81.0725 52.9548 80.643C52.353 80.2652 51.5487 80.333 51.0348 80.7685L55.7493 74.3904C55.9909 74.0662 56.0618 73.6655 55.9458 73.2904ZM42.3472 87.6125L41.9141 79.6263L47.2153 72.0203L52.2654 74.1941L42.3472 87.6125Z" fill="#D00338" fillOpacity="0.9"/>
<path d="M11.3774 136.732C11.6887 136.732 12.0031 136.647 12.2735 136.471L30.097 124.833C30.7724 124.392 30.918 123.547 30.4224 122.946C29.9267 122.346 28.9775 122.216 28.3021 122.657L10.4786 134.295C9.80321 134.737 9.65759 135.581 10.1532 136.182C10.4505 136.542 10.9109 136.732 11.3774 136.732Z" fill="#D00338" fillOpacity="0.9"/>
<path d="M43.0656 128.16C42.8088 121.599 43.039 115.419 43.0413 115.357C43.0697 114.613 42.414 113.988 41.5767 113.963C40.7314 113.945 40.0375 114.52 40.0094 115.266C40.0071 115.328 39.7735 121.587 40.0329 128.24C40.3465 136.277 41.1645 140.383 42.036 142.606C32.8478 142.521 16.2491 142.578 8.20695 142.614L8.49174 142.424C9.16335 141.979 9.30138 141.133 8.80043 140.536C8.29948 139.938 7.34877 139.815 6.67754 140.261L2.69569 142.903C2.17047 143.252 1.95621 143.861 2.1644 144.414C2.37184 144.964 2.95091 145.334 3.60241 145.334C3.60583 145.334 3.60924 145.334 3.61227 145.334C3.91148 145.333 33.6786 145.168 44.5328 145.334C44.5415 145.334 44.5502 145.334 44.5589 145.334C45.1543 145.334 45.6955 145.024 45.9412 144.54C46.1904 144.049 46.0872 143.473 45.6792 143.075C45.0447 142.457 43.5195 139.766 43.0656 128.16Z" fill="#D00338" fillOpacity="0.9"/>
</svg>
