<svg width="45" height="45" viewBox="0 0 45 45" fill="none" xmlns="http://www.w3.org/2000/svg">
<path opacity="0.8" d="M23 38C31.8366 38 39 30.8366 39 22C39 13.1634 31.8366 6 23 6C14.1634 6 7 13.1634 7 22C7 30.8366 14.1634 38 23 38Z" stroke="#D00338" stroke-opacity="0.9" stroke-width="2" stroke-linecap="round" stroke-linejoin="round"/>
<path opacity="0.8" d="M37 29.1919L28.0385 23.7032C27.8843 23.6044 27.7092 23.5426 27.5269 23.5224L23.7476 23.013C23.4656 22.9727 23.1782 23.0266 22.9303 23.1664C22.6824 23.3062 22.4881 23.5239 22.3778 23.7854L20.1168 28.8303C20.0105 29.065 19.9757 29.3256 20.0168 29.5797C20.0578 29.8339 20.1729 30.0704 20.3478 30.26L23.4505 33.5959C23.5907 33.7494 23.6935 33.9331 23.7508 34.1326C23.808 34.3321 23.8182 34.5421 23.7806 34.7462L23.1369 38" stroke="#D00338" stroke-opacity="0.9" stroke-width="2" stroke-linecap="round" stroke-linejoin="round"/>
<path opacity="0.8" d="M12.4704 10L10.1066 13.5291C9.97071 13.8424 9.96451 14.1937 10.0893 14.5113L12.0831 19.6052C12.161 19.8176 12.2944 20.0071 12.4704 20.1558C12.6465 20.3044 12.8594 20.4072 13.0886 20.4542L16.7988 21.22C17.0047 21.26 17.1981 21.3455 17.3637 21.4697C17.5292 21.594 17.6623 21.7536 17.7524 21.9358L18.4112 23.2509C18.5282 23.4732 18.7064 23.6606 18.9265 23.7927C19.1465 23.9247 19.4 23.9964 19.6595 24H22" stroke="#D00338" stroke-opacity="0.9" stroke-width="2" stroke-linecap="round" stroke-linejoin="round"/>
<path opacity="0.8" d="M26.2898 7L27.8364 9.78673C27.9792 10.0487 28.0306 10.3507 27.9824 10.645C27.9342 10.9393 27.7893 11.2092 27.5703 11.4123L23.0968 15.4431C23.0219 15.5145 22.938 15.5758 22.8473 15.6256L20.8018 16.7536C20.6068 16.8568 20.3905 16.9135 20.1698 16.9194H16.611C16.3488 16.9208 16.0927 16.9984 15.8741 17.1427C15.6555 17.2871 15.4839 17.492 15.3803 17.7322L14.6902 19.3661L14 20.5" stroke="#D00338" stroke-opacity="0.9" stroke-width="2" stroke-linecap="round" stroke-linejoin="round"/>
</svg>
