<svg width="45" height="45" viewBox="0 0 45 45" fill="none" xmlns="http://www.w3.org/2000/svg">
<g opacity="0.8">
<path d="M14.1049 32.2037C13.6651 31.8696 13.0378 31.9553 12.7037 32.3951C12.3696 32.8349 12.4553 33.4622 12.8951 33.7963L14.1049 32.2037ZM32.1223 33.7827C32.5546 33.439 32.6265 32.81 32.2827 32.3777C31.939 31.9454 31.31 31.8735 30.8777 32.2173L32.1223 33.7827ZM23 36.9952L22.9587 35.996L23 36.9952ZM13.5 33C12.8951 33.7963 12.8953 33.7964 12.8955 33.7966C12.8955 33.7966 12.8958 33.7968 12.8959 33.7969C12.8963 33.7972 12.8967 33.7975 12.8973 33.7979C12.8983 33.7987 12.8997 33.7998 12.9014 33.8011C12.9049 33.8037 12.9096 33.8073 12.9157 33.8118C12.9278 33.8209 12.9451 33.8339 12.9674 33.8503C13.0119 33.8833 13.0764 33.9306 13.1591 33.9901C13.3244 34.1091 13.5628 34.2771 13.8608 34.4775C14.4558 34.8775 15.2934 35.4098 16.2635 35.9381C18.1533 36.9672 20.7372 38.0894 23.0413 37.9943L22.9587 35.996C21.2408 36.067 19.0747 35.1916 17.22 34.1816C16.3179 33.6904 15.5346 33.1928 14.9767 32.8177C14.6983 32.6305 14.4774 32.4748 14.3274 32.3668C14.2524 32.3129 14.1953 32.2709 14.1576 32.243C14.1388 32.2291 14.1248 32.2187 14.116 32.212C14.1115 32.2087 14.1084 32.2063 14.1065 32.2049C14.1056 32.2042 14.105 32.2038 14.1047 32.2036C14.1046 32.2035 14.1045 32.2034 14.1046 32.2034C14.1046 32.2035 14.1047 32.2035 14.1047 32.2035C14.1048 32.2036 14.1049 32.2037 13.5 33ZM23.0413 37.9943C25.1384 37.9077 27.4469 36.7931 29.1314 35.8029C29.9955 35.2949 30.739 34.793 31.2665 34.4181C31.5308 34.2304 31.742 34.0737 31.8883 33.963C31.9616 33.9076 32.0186 33.8637 32.0581 33.833C32.0779 33.8177 32.0932 33.8057 32.104 33.7973C32.1093 33.793 32.1136 33.7897 32.1167 33.7873C32.1182 33.786 32.1194 33.7851 32.1204 33.7843C32.1209 33.7839 32.1213 33.7836 32.1216 33.7833C32.1217 33.7832 32.1219 33.7831 32.122 33.783C32.1222 33.7829 32.1223 33.7827 31.5 33C30.8777 32.2173 30.8778 32.2172 30.8779 32.2171C30.8779 32.2171 30.878 32.217 30.878 32.217C30.878 32.217 30.878 32.217 30.8779 32.2171C30.8776 32.2173 30.8771 32.2177 30.8763 32.2183C30.8747 32.2196 30.872 32.2218 30.8681 32.2248C30.8603 32.2309 30.8481 32.2405 30.8315 32.2534C30.7984 32.2791 30.748 32.3179 30.6819 32.3679C30.5496 32.468 30.3544 32.6128 30.1081 32.7878C29.6146 33.1384 28.9204 33.6069 28.1178 34.0787C26.4686 35.0483 24.5271 35.9312 22.9587 35.996L23.0413 37.9943Z" fill="#D00338" fillOpacity="0.9"/>
<path d="M22.5 21C24.7091 21 26.5 19.2091 26.5 17C26.5 14.7909 24.7091 13 22.5 13C20.2909 13 18.5 14.7909 18.5 17C18.5 19.2091 20.2909 21 22.5 21Z" stroke="#D00338" stroke-opacity="0.9" stroke-width="2" stroke-linecap="round" stroke-linejoin="round"/>
<path d="M32.5 17C32.5 26 22.5 33 22.5 33C22.5 33 12.5 26 12.5 17C12.5 14.3478 13.5536 11.8043 15.4289 9.92893C17.3043 8.05357 19.8478 7 22.5 7C25.1522 7 27.6957 8.05357 29.5711 9.92893C31.4464 11.8043 32.5 14.3478 32.5 17V17Z" stroke="#D00338" stroke-opacity="0.9" stroke-width="2" stroke-linecap="round" stroke-linejoin="round"/>
</g>
</svg>
