<svg width="181" height="54" viewBox="0 0 181 54" fill="none" xmlns="http://www.w3.org/2000/svg">
<path d="M176.29 3.95249L176.433 3.10247C176.461 2.93699 176.45 2.76814 176.402 2.60819C176.354 2.44825 176.269 2.30124 176.154 2.17786C176.04 2.05448 175.898 1.95782 175.739 1.89492C175.58 1.83201 175.407 1.80445 175.235 1.81423L174.348 1.86443C173.541 1.9102 172.766 2.20731 172.14 2.7115L168.018 6.02883C163.23 9.88311 159.075 14.4223 155.7 19.4855C155.644 19.5695 155.617 19.6685 155.625 19.7674C155.633 19.8663 155.674 19.9596 155.742 20.0328C155.81 20.1061 155.901 20.1553 156.002 20.1728C156.103 20.1903 156.207 20.1753 156.299 20.1299C161.839 17.3951 166.922 13.8536 171.367 9.63089L175.194 5.99643C175.775 5.44405 176.16 4.72713 176.29 3.95249Z" fill="#2082DD"/>
<path d="M169.945 5.81308L155.775 4.94228C155.547 4.92824 155.317 4.98421 155.121 5.10136C154.925 5.21851 154.774 5.39016 154.693 5.58921C154.612 5.78826 154.605 6.00337 154.673 6.20058C154.742 6.39779 154.881 6.56585 155.069 6.67824L163.104 11.4695L169.945 5.81308Z" fill="#2082DD"/>
<path d="M171.579 8.57065L171.193 22.2155C171.187 22.4355 171.103 22.6492 170.955 22.823C170.807 22.9967 170.604 23.1206 170.376 23.175C170.149 23.2294 169.911 23.2112 169.7 23.1234C169.489 23.0355 169.317 22.883 169.21 22.6898L164.687 14.456L171.579 8.57065Z" fill="#2082DD"/>
<path d="M159.093 16.9479L153.447 16.6951C153.356 16.691 153.264 16.7133 153.185 16.7584C153.106 16.8035 153.045 16.8688 153.012 16.9441C152.979 17.0194 152.975 17.1004 153.001 17.1742C153.027 17.248 153.082 17.3105 153.156 17.3518L156.335 19.1118L159.093 16.9479Z" fill="#2082DD"/>
<path d="M158.989 16.4765L158.998 22.2859C158.998 22.3795 158.969 22.4697 158.915 22.542C158.861 22.6144 158.785 22.6648 158.7 22.6854C158.615 22.7061 158.525 22.6956 158.444 22.6558C158.364 22.616 158.297 22.5491 158.255 22.4656L156.454 18.9062L158.989 16.4765Z" fill="#2082DD"/>
<path d="M12.26 20.892C12.12 23.076 12.05 27.248 12.05 33.408C12.05 39.568 12.288 43.404 12.764 44.916C11.84 45.196 10.986 45.336 10.202 45.336C9.418 45.336 8.788 45.308 8.312 45.252C8.704 41.976 8.9 37.692 8.9 32.4C8.9 27.08 8.802 23.244 8.606 20.892C4.77 21.06 2.292 21.256 1.172 21.48C1.06 21.088 1.004 20.556 1.004 19.884C1.004 19.212 1.116 18.512 1.34 17.784C3.412 18.036 5.918 18.162 8.858 18.162C14.794 18.162 18.462 17.966 19.862 17.574C19.974 18.078 20.03 18.638 20.03 19.254C20.03 19.87 19.918 20.542 19.694 21.27C17.538 21.074 15.06 20.948 12.26 20.892ZM22.6107 35.046C22.6107 28.298 25.2427 24.924 30.5067 24.924C35.7707 24.924 38.4027 28.298 38.4027 35.046C38.4027 38.154 37.9127 40.618 36.9327 42.438C35.8127 44.566 33.6707 45.63 30.5067 45.63C27.3427 45.63 25.2007 44.566 24.0807 42.438C23.1007 40.618 22.6107 38.154 22.6107 35.046ZM26.0547 34.962C26.0547 40.058 27.5387 42.606 30.5067 42.606C33.4747 42.606 34.9587 40.058 34.9587 34.962C34.9587 29.838 33.4747 27.276 30.5067 27.276C27.5387 27.276 26.0547 29.838 26.0547 34.962ZM43.7292 39.582L43.7712 36.18C43.7712 31.896 43.5192 28.424 43.0152 25.764C43.6592 25.512 44.3732 25.386 45.1572 25.386C45.9412 25.386 46.7112 25.428 47.4672 25.512C47.0472 29.348 46.8372 32.61 46.8372 35.298C46.8372 37.986 47.0192 39.876 47.3832 40.968C47.7752 42.06 48.6152 42.606 49.9032 42.606C51.2192 42.606 52.7312 41.752 54.4392 40.044C54.4952 39.204 54.5232 37.958 54.5232 36.306C54.5232 31.686 54.2712 28.172 53.7672 25.764C54.8312 25.484 55.7132 25.344 56.4132 25.344C57.1132 25.344 57.7152 25.4 58.2192 25.512C57.7992 29.32 57.5892 32.75 57.5892 35.802C57.5892 38.826 57.8412 41.85 58.3452 44.874C57.5052 45.126 56.7772 45.252 56.1612 45.252C55.5452 45.252 54.9572 45.224 54.3972 45.168L54.3132 43.11C52.2412 44.79 50.3232 45.63 48.5592 45.63C46.8232 45.63 45.5772 45.14 44.8212 44.16C44.0932 43.152 43.7292 41.626 43.7292 39.582ZM68.0452 27.696C68.6892 26.968 69.4452 26.366 70.3132 25.89C71.1812 25.386 72.0352 25.134 72.8752 25.134C73.7152 25.134 74.4012 25.596 74.9332 26.52C75.4652 27.444 75.7312 28.564 75.7312 29.88C75.7312 30.356 75.7032 30.762 75.6472 31.098C75.1432 31.35 74.6252 31.476 74.0932 31.476C73.5892 31.476 72.9732 31.42 72.2452 31.308C72.3012 30.86 72.3292 30.566 72.3292 30.426C72.3292 28.886 71.7692 28.116 70.6492 28.116C70.3412 28.116 69.9212 28.312 69.3892 28.704C68.8572 29.096 68.3532 29.586 67.8772 30.174C67.8212 31.07 67.7932 32.428 67.7932 34.248C67.7932 38.84 68.0452 42.34 68.5492 44.748C67.5412 45.028 66.6872 45.168 65.9872 45.168C65.2872 45.168 64.6572 45.14 64.0972 45.084C64.5172 41.276 64.7272 37.944 64.7272 35.088C64.7272 32.232 64.4472 29.124 63.8872 25.764C65.0072 25.484 65.8892 25.344 66.5332 25.344C67.1772 25.344 67.6812 25.4 68.0452 25.512V27.696ZM92.2237 34.668C90.1237 35.34 88.0237 35.676 85.9237 35.676C83.8517 35.676 82.2977 35.606 81.2617 35.466C81.2617 37.986 81.6677 39.82 82.4797 40.968C83.2357 42.06 84.4117 42.606 86.0077 42.606C87.6037 42.606 89.3397 41.738 91.2157 40.002C92.0277 40.842 92.5457 41.948 92.7697 43.32C90.5017 44.86 88.1357 45.63 85.6717 45.63C82.7317 45.63 80.6877 44.678 79.5397 42.774C78.3917 40.842 77.8177 38.294 77.8177 35.13C77.8177 31.966 78.4477 29.474 79.7077 27.654C80.9957 25.834 83.0817 24.924 85.9657 24.924C87.9817 24.924 89.5917 25.54 90.7957 26.772C92.0277 27.976 92.6437 29.418 92.6437 31.098C92.6717 32.75 92.5317 33.94 92.2237 34.668ZM85.6717 27.276C83.0957 27.276 81.6397 29.194 81.3037 33.03C82.5077 33.17 83.8657 33.24 85.3777 33.24C86.9177 33.24 88.1217 33.1 88.9897 32.82C89.1017 31.812 89.1577 31.294 89.1577 31.266C89.1577 30.174 88.8777 29.236 88.3177 28.452C87.7577 27.668 86.8757 27.276 85.6717 27.276ZM98.153 45.084C98.573 41.444 98.783 37.132 98.783 32.148C98.783 27.136 98.741 23.818 98.657 22.194C98.573 20.57 98.363 18.764 98.027 16.776C98.755 16.496 99.483 16.356 100.211 16.356C100.939 16.356 101.695 16.384 102.479 16.44C102.059 19.884 101.849 25.036 101.849 31.896C101.849 38.756 102.101 43.04 102.605 44.748C101.681 45.028 100.827 45.168 100.043 45.168C99.259 45.168 98.629 45.14 98.153 45.084ZM112.766 34.248C112.766 38.84 113.018 42.34 113.522 44.748C112.514 45.028 111.604 45.168 110.792 45.168C109.98 45.168 109.406 45.14 109.07 45.084C109.49 41.276 109.7 37.79 109.7 34.626C109.7 31.434 109.448 28.48 108.944 25.764C109.896 25.484 110.75 25.344 111.506 25.344C112.262 25.344 112.892 25.4 113.396 25.512C112.976 29.852 112.766 32.764 112.766 34.248ZM113.564 19.254C113.564 20.99 112.668 21.858 110.876 21.858C109.476 21.858 108.776 21.144 108.776 19.716C108.776 17.952 109.672 17.07 111.464 17.07C112.864 17.07 113.564 17.798 113.564 19.254ZM131.695 39.708C131.695 41.696 131.051 43.18 129.763 44.16C128.475 45.14 126.865 45.63 124.933 45.63C122.245 45.63 119.893 44.86 117.877 43.32C117.989 42.704 118.199 42.102 118.507 41.514C118.843 40.898 119.137 40.436 119.389 40.128L119.809 39.708C121.265 41.78 123.001 42.816 125.017 42.816C125.997 42.816 126.795 42.606 127.411 42.186C128.055 41.766 128.377 41.192 128.377 40.464C128.377 39.708 128.027 39.036 127.327 38.448C126.655 37.86 125.829 37.37 124.849 36.978C123.869 36.558 122.889 36.124 121.909 35.676C120.929 35.2 120.089 34.528 119.389 33.66C118.717 32.792 118.381 31.756 118.381 30.552C118.381 28.816 118.941 27.444 120.061 26.436C121.181 25.428 122.861 24.924 125.101 24.924C127.369 24.924 128.993 25.414 129.973 26.394C130.981 27.374 131.485 28.914 131.485 31.014C130.869 31.238 130.295 31.35 129.763 31.35C129.231 31.35 128.573 31.266 127.789 31.098C127.845 30.706 127.873 30.398 127.873 30.174C127.873 29.306 127.621 28.592 127.117 28.032C126.613 27.444 125.885 27.15 124.933 27.15C124.009 27.15 123.239 27.374 122.623 27.822C122.007 28.242 121.699 28.9 121.699 29.796C121.699 30.664 122.035 31.42 122.707 32.064C123.407 32.708 124.247 33.24 125.227 33.66C126.207 34.052 127.187 34.472 128.167 34.92C129.147 35.34 129.973 35.956 130.645 36.768C131.345 37.552 131.695 38.532 131.695 39.708ZM152.079 30.972L152.037 34.374C152.037 38.042 152.317 41.458 152.877 44.622C151.953 44.986 151.043 45.168 150.147 45.168C149.279 45.168 148.677 45.14 148.341 45.084C148.677 41.276 148.845 37.916 148.845 35.004C148.845 32.092 148.607 30.132 148.131 29.124C147.683 28.116 146.899 27.612 145.779 27.612C144.267 27.612 142.587 28.536 140.739 30.384C140.739 38.308 140.991 43.096 141.495 44.748C140.571 45.028 139.829 45.168 139.269 45.168C138.737 45.168 137.995 45.14 137.043 45.084C137.463 41.444 137.673 37.132 137.673 32.148C137.673 27.136 137.631 23.818 137.547 22.194C137.463 20.57 137.253 18.764 136.917 16.776C137.645 16.496 138.373 16.356 139.101 16.356C139.829 16.356 140.585 16.384 141.369 16.44C140.949 19.8 140.739 23.622 140.739 27.906C141.579 27.01 142.587 26.296 143.763 25.764C144.939 25.204 146.045 24.924 147.081 24.924C148.789 24.924 150.049 25.414 150.861 26.394C151.673 27.374 152.079 28.9 152.079 30.972Z" fill="#D00338" fill-opacity="0.9"/>
</svg>
